<svg xmlns="http://www.w3.org/2000/svg" xmlns:xlink="http://www.w3.org/1999/xlink" viewBox="2800 5 375 667">
  <defs>
    <style>
      .cls-1 {
        clip-path: url(#clip-iPhone_6_7_2);
      }

      .cls-15, .cls-19, .cls-2, .cls-20 {
        fill: #fff;
      }

      .cls-3 {
        fill: rgba(248,248,248,0.75);
      }

      .cls-16, .cls-18, .cls-3 {
        stroke: rgba(0,0,0,0);
      }

      .cls-4 {
        fill: #f4f4f4;
      }

      .cls-18, .cls-5 {
        fill: #676767;
      }

      .cls-5, .cls-6 {
        font-size: 20px;
      }

      .cls-5, .cls-8, .cls-9 {
        font-family: SanFranciscoDisplay-Medium, San Francisco Display;
        font-weight: 500;
      }

      .cls-6 {
        font-family: SanFranciscoDisplay-Bold, San Francisco Display;
      }

      .cls-12, .cls-6 {
        font-weight: 700;
      }

      .cls-7 {
        fill: #292929;
        font-size: 17px;
        font-family: SanFranciscoDisplay-Regular, San Francisco Display;
      }

      .cls-10, .cls-8 {
        fill: #f89f6f;
      }

      .cls-8, .cls-9 {
        font-size: 15px;
      }

      .cls-9 {
        fill: #a9a8a8;
      }

      .cls-10 {
        font-size: 22px;
        font-family: NanumGothicBold, Nanum Gothic;
      }

      .cls-11, .cls-13, .cls-14, .cls-21, .cls-23 {
        fill: none;
      }

      .cls-11 {
        stroke: #fd4d3a;
      }

      .cls-11, .cls-13, .cls-14, .cls-15, .cls-21 {
        stroke-width: 2px;
      }

      .cls-12 {
        fill: #fd4d3a;
        font-size: 28px;
        font-family: Menlo-Bold, Menlo;
      }

      .cls-13 {
        stroke: #f89f6f;
      }

      .cls-14, .cls-15 {
        stroke: #a9a8a8;
        stroke-linecap: round;
        stroke-linejoin: round;
        stroke-miterlimit: 10;
      }

      .cls-17 {
        font-size: 12px;
        font-family: Helvetica;
      }

      .cls-19, .cls-20 {
        stroke: #e5e5e5;
      }

      .cls-19 {
        stroke-width: 1.5px;
      }

      .cls-20 {
        stroke-width: 0.5px;
      }

      .cls-21 {
        stroke: #bcbcbc;
      }

      .cls-22 {
        stroke: none;
      }

      .cls-24 {
        filter: url(#circle);
      }

      .cls-25 {
        filter: url(#Ellipse_60);
      }

      .cls-26 {
        filter: url(#Ellipse_59);
      }

      .cls-27 {
        filter: url(#Ellipse_58);
      }

      .cls-28 {
        filter: url(#Ellipse_57);
      }

      .cls-29 {
        filter: url(#Ellipse_56);
      }
    </style>
    <filter id="Ellipse_56" x="2813" y="163" width="68.419" height="68.419" filterUnits="userSpaceOnUse">
      <feOffset dy="3" input="SourceAlpha"/>
      <feGaussianBlur stdDeviation="3" result="blur"/>
      <feFlood flood-opacity="0.161"/>
      <feComposite operator="in" in2="blur"/>
      <feComposite in="SourceGraphic"/>
    </filter>
    <filter id="Ellipse_57" x="2883" y="163" width="68.419" height="68.419" filterUnits="userSpaceOnUse">
      <feOffset dy="3" input="SourceAlpha"/>
      <feGaussianBlur stdDeviation="3" result="blur-2"/>
      <feFlood flood-opacity="0.161"/>
      <feComposite operator="in" in2="blur-2"/>
      <feComposite in="SourceGraphic"/>
    </filter>
    <filter id="Ellipse_58" x="2953" y="163" width="68.419" height="68.419" filterUnits="userSpaceOnUse">
      <feOffset dy="3" input="SourceAlpha"/>
      <feGaussianBlur stdDeviation="3" result="blur-3"/>
      <feFlood flood-opacity="0.161"/>
      <feComposite operator="in" in2="blur-3"/>
      <feComposite in="SourceGraphic"/>
    </filter>
    <filter id="Ellipse_59" x="3023" y="163" width="68.419" height="68.419" filterUnits="userSpaceOnUse">
      <feOffset dy="3" input="SourceAlpha"/>
      <feGaussianBlur stdDeviation="3" result="blur-4"/>
      <feFlood flood-opacity="0.161"/>
      <feComposite operator="in" in2="blur-4"/>
      <feComposite in="SourceGraphic"/>
    </filter>
    <filter id="Ellipse_60" x="3093" y="163" width="68.419" height="68.419" filterUnits="userSpaceOnUse">
      <feOffset dy="3" input="SourceAlpha"/>
      <feGaussianBlur stdDeviation="3" result="blur-5"/>
      <feFlood flood-opacity="0.161"/>
      <feComposite operator="in" in2="blur-5"/>
      <feComposite in="SourceGraphic"/>
    </filter>
    <filter id="circle" x="3093.45" y="278.25" width="37.5" height="37.5" filterUnits="userSpaceOnUse">
      <feOffset dy="3" input="SourceAlpha"/>
      <feGaussianBlur stdDeviation="1.5" result="blur-6"/>
      <feFlood flood-opacity="0.161"/>
      <feComposite operator="in" in2="blur-6"/>
      <feComposite in="SourceGraphic"/>
    </filter>
    <clipPath id="clip-iPhone_6_7_2">
      <rect x="2800" y="5" width="375" height="667"/>
    </clipPath>
  </defs>
  <g id="iPhone_6_7_2" data-name="iPhone 6/7 – 2" class="cls-1">
    <rect class="cls-2" x="2800" y="5" width="375" height="667"/>
    <rect id="Rectangle_196" data-name="Rectangle 196" class="cls-2" width="375" height="667" transform="translate(2800 5)"/>
    <rect id="background_rectangle" data-name="background rectangle" class="cls-3" width="375" height="64" transform="translate(2800 5)"/>
    <rect id="Rectangle_53" data-name="Rectangle 53" class="cls-4" width="375" height="525" transform="translate(2800 69)"/>
    <rect id="Rectangle_54" data-name="Rectangle 54" class="cls-2" width="375" height="129" transform="translate(2800 119)"/>
    <g id="Group_469" data-name="Group 469" transform="translate(2792 -54)">
      <rect id="Rectangle_55" data-name="Rectangle 55" class="cls-2" width="375" height="172.974" rx="10" transform="translate(8 311)"/>
    </g>
    <rect id="Rectangle_56" data-name="Rectangle 56" class="cls-2" width="375" height="146" transform="translate(2800 438)"/>
    <text id="Create_Event" data-name="Create Event" class="cls-5" transform="translate(2932 54)"><tspan x="0" y="0">Create Event</tspan></text>
    <text id="email_cs_prof." data-name="email cs prof." class="cls-6" transform="translate(2927 101)"><tspan x="0" y="0">email cs prof.</tspan></text>
    <text id="estimated_time" data-name="estimated time" class="cls-7" transform="translate(2823 155)"><tspan x="0" y="0">estimated time</tspan></text>
    <text id="deadline" class="cls-7" transform="translate(2823 294)"><tspan x="0" y="0">deadline</tspan></text>
    <text id="places" class="cls-7" transform="translate(2823 475)"><tspan x="0" y="0">places</tspan></text>
    <text id="office" class="cls-8" transform="translate(2896 553)"><tspan x="0" y="0">office</tspan></text>
    <text id="home" class="cls-9" transform="translate(2988 553)"><tspan x="0" y="0">home</tspan></text>
    <text id="anywhere" class="cls-9" transform="translate(3064 553)"><tspan x="0" y="0">anywhere</tspan></text>
    <g class="cls-29" transform="matrix(1, 0, 0, 1, 0, 0)">
      <circle id="Ellipse_56-2" data-name="Ellipse 56" class="cls-2" cx="25.21" cy="25.21" r="25.21" transform="translate(2822 169)"/>
    </g>
    <text id="_5" data-name="5" class="cls-10" transform="translate(2840 202)"><tspan x="0" y="0">5</tspan></text>
    <text id="Feb" class="cls-10" transform="translate(2852 377)"><tspan x="0" y="0">Feb</tspan></text>
    <text id="Mar" class="cls-10" transform="translate(2967 377)"><tspan x="0" y="0">Mar</tspan></text>
    <text id="Apr" class="cls-10" transform="translate(3086 377)"><tspan x="0" y="0">Apr</tspan></text>
    <g id="Group_491" data-name="Group 491" transform="translate(2800 5)">
      <g class="cls-28" transform="matrix(1, 0, 0, 1, -2800, -5)">
        <circle id="Ellipse_57-2" data-name="Ellipse 57" class="cls-2" cx="25.21" cy="25.21" r="25.21" transform="translate(2892 169)"/>
      </g>
      <text id="_10" data-name="10" class="cls-10" transform="translate(104 197)"><tspan x="0" y="0">10</tspan></text>
    </g>
    <g id="Group_490" data-name="Group 490" transform="translate(2800 5)">
      <g class="cls-27" transform="matrix(1, 0, 0, 1, -2800, -5)">
        <circle id="Ellipse_58-2" data-name="Ellipse 58" class="cls-2" cx="25.21" cy="25.21" r="25.21" transform="translate(2962 169)"/>
      </g>
      <text id="_15" data-name="15" class="cls-10" transform="translate(174 197)"><tspan x="0" y="0">15</tspan></text>
    </g>
    <g id="Group_489" data-name="Group 489" transform="translate(2800 5)">
      <g class="cls-26" transform="matrix(1, 0, 0, 1, -2800, -5)">
        <circle id="Ellipse_59-2" data-name="Ellipse 59" class="cls-2" cx="25.21" cy="25.21" r="25.21" transform="translate(3032 169)"/>
      </g>
      <text id="_20" data-name="20" class="cls-10" transform="translate(244 197)"><tspan x="0" y="0">20</tspan></text>
    </g>
    <g id="Group_488" data-name="Group 488" transform="translate(2800 5)">
      <g class="cls-25" transform="matrix(1, 0, 0, 1, -2800, -5)">
        <circle id="Ellipse_60-2" data-name="Ellipse 60" class="cls-2" cx="25.21" cy="25.21" r="25.21" transform="translate(3102 169)"/>
      </g>
      <text id="_25" data-name="25" class="cls-10" transform="translate(314 197)"><tspan x="0" y="0">25</tspan></text>
    </g>
    <g id="Rectangle_41" data-name="Rectangle 41" class="cls-11" transform="translate(2886 606)">
      <rect class="cls-22" width="204" height="53" rx="26.5"/>
      <rect class="cls-23" x="1" y="1" width="202" height="51" rx="25.5"/>
    </g>
    <text id="DONE" class="cls-12" transform="translate(2954 642)"><tspan x="0" y="0">DONE</tspan></text>
    <g id="Group_492" data-name="Group 492" transform="translate(2800 5)">
      <g id="Rectangle_57" data-name="Rectangle 57" class="cls-13" transform="translate(101.7 490)">
        <rect class="cls-22" width="19.95" height="13.3" rx="1"/>
        <rect class="cls-23" x="1" y="1" width="17.95" height="11.3"/>
      </g>
      <g id="Rectangle_58" data-name="Rectangle 58" class="cls-13" transform="translate(96 507.1)">
        <rect class="cls-22" width="38" height="6.65" rx="1"/>
        <rect class="cls-23" x="1" y="1" width="36" height="4.65"/>
      </g>
      <g id="Rectangle_59" data-name="Rectangle 59" class="cls-13" transform="translate(117.85 511.85)">
        <rect class="cls-22" width="14.25" height="16.15" rx="1"/>
        <rect class="cls-23" x="1" y="1" width="12.25" height="14.15"/>
      </g>
      <line id="Line_31" data-name="Line 31" class="cls-13" y2="4.75" transform="translate(111.675 502.825)"/>
      <line id="Line_32" data-name="Line 32" class="cls-13" y2="15.2" transform="translate(99.325 512.325)"/>
      <line id="Line_33" data-name="Line 33" class="cls-13" x2="13.3" transform="translate(118.325 519.925)"/>
    </g>
    <g id="Group_69" data-name="Group 69" transform="translate(2988 494.359)">
      <line id="Line_34" data-name="Line 34" class="cls-14" x2="8.746" transform="translate(21.052 17.426)"/>
      <rect id="Rectangle_60" data-name="Rectangle 60" class="cls-14" width="7.609" height="13.439" transform="translate(8.609 22.759)"/>
      <path id="Path_12" data-name="Path 12" class="cls-14" d="M19.132,1,1,10.671V36.34H37.265V10.671Z"/>
      <rect id="Rectangle_61" data-name="Rectangle 61" class="cls-14" width="8.746" height="8.746" transform="translate(21.052 13.017)"/>
    </g>
    <g id="Group_70" data-name="Group 70" transform="translate(3079 495.386)">
      <path id="Path_14" data-name="Path 14" class="cls-14" d="M29.188,26.066a1.931,1.931,0,0,0-1.5,0,17.391,17.391,0,0,1-7.072,1.482c-8.358,0-15.215-5.93-15.215-13.274S12.258,1,20.687,1,35.9,6.93,35.9,14.274a12.057,12.057,0,0,1-1.714,6.132,2.88,2.88,0,0,0-.357,2.021l1.143,5.188a.5.5,0,0,1-.714.539Z" transform="translate(-1.257)"/>
      <path id="Path_15" data-name="Path 15" class="cls-15" d="M1,27.7H17.573L14.787,45.623H3.714Z" transform="translate(0 -8.709)"/>
      <line id="Line_35" data-name="Line 35" class="cls-14" x2="17.716" transform="translate(10.215 9.557)"/>
      <line id="Line_36" data-name="Line 36" class="cls-14" x2="17.716" transform="translate(10.215 14.274)"/>
      <line id="Line_37" data-name="Line 37" class="cls-14" x2="5.572" transform="translate(22.359 18.991)"/>
    </g>
    <g id="status_bar" data-name="status bar" transform="translate(1436.5 12)">
      <g id="battery">
        <path id="path" class="cls-16" d="M1.5,1.026h0a1.026,1.026,0,0,0-1,1.053V8.921a1.029,1.029,0,0,0,1,1.053H21a1.026,1.026,0,0,0,1-1.053V2.079a1.029,1.029,0,0,0-1-1.053ZM1.5.5H21a1.543,1.543,0,0,1,1.5,1.579V8.921A1.54,1.54,0,0,1,21,10.5H1.5A1.543,1.543,0,0,1,0,8.921V2.079A1.54,1.54,0,0,1,1.5.5Z" transform="translate(1706.5 -1)"/>
        <rect id="rectangle" class="cls-16" width="9" height="8" rx="1" transform="translate(1707.5 0.5)"/>
        <path id="path-2" data-name="path" class="cls-16" d="M24.5,5.732A1.75,1.75,0,0,1,23,7.465V4A1.75,1.75,0,0,1,24.5,5.732Z" transform="translate(1706.5 -1)"/>
      </g>
      <text id="battery_percent" data-name="battery percent" class="cls-17" transform="translate(1678.5 8.5)"><tspan x="0" y="0">42%</tspan></text>
      <path id="bluetooth" d="M306.428,14.369V10.811l1.712,1.864-1.712,1.694Zm1.791-7.022-1.791,1.8V5.735l1.791,1.611Zm-1.36,2.664,2.657-2.664L305.551,3.5h-.094V8.85l-2.691-2.821-.766.8,3.238,3.182L302,13.192l.766.8,2.691-2.821v5.349h.171l3.925-3.856-2.7-2.654Z" transform="translate(1363.5 -5)"/>
      <text id="time" class="cls-17" transform="translate(1527.5 9.5)"><tspan x="0" y="0">9:41 AM</tspan></text>
      <path id="wifi" class="cls-16" d="M90.5,7.021a7.716,7.716,0,0,1,5.063,1.886L96.5,7.868a8.8,8.8,0,0,0-12-.007L85.439,8.9A7.714,7.714,0,0,1,90.5,7.021Zm0,3a4.688,4.688,0,0,1,3.044,1.117l1-1.1a6.075,6.075,0,0,0-8.074,0l.994,1.1A4.686,4.686,0,0,1,90.5,10.02Zm2.048,2.217a3.084,3.084,0,0,0-4.094,0L90.5,14.5l2.048-2.263Z" transform="translate(1367 -6)"/>
      <text id="carrier" class="cls-17" transform="translate(1408.5 8.5)"><tspan x="0" y="0">Carrier</tspan></text>
      <g id="signal_strength" data-name="signal strength">
        <circle id="black_circle" data-name="black circle" class="cls-16" cx="2.75" cy="2.75" r="2.75" transform="translate(1371.5 2.5)"/>
        <circle id="black_circle-2" data-name="black circle" class="cls-16" cx="2.75" cy="2.75" r="2.75" transform="translate(1378.5 2.5)"/>
        <circle id="black_circle-3" data-name="black circle" class="cls-16" cx="2.75" cy="2.75" r="2.75" transform="translate(1385.5 2.5)"/>
        <path id="white_circle" data-name="white circle" class="cls-16" d="M23.75,5h0A2.25,2.25,0,1,0,21.5,2.75,2.25,2.25,0,0,0,23.75,5Zm0,.5h0A2.75,2.75,0,1,1,26.5,2.75,2.75,2.75,0,0,1,23.75,5.5Z" transform="translate(1371.5 2.5)"/>
        <path id="white_circle-2" data-name="white circle" class="cls-16" d="M30.75,5h0A2.25,2.25,0,1,0,28.5,2.75,2.25,2.25,0,0,0,30.75,5Zm0,.5h0A2.75,2.75,0,1,1,33.5,2.75,2.75,2.75,0,0,1,30.75,5.5Z" transform="translate(1371.5 2.5)"/>
      </g>
    </g>
    <path id="back_button" data-name="back button" class="cls-18" d="M18.5,32.5,8,43.5l10.5,11L20.8,51.678,13,43.5l7.8-8.178Z" transform="translate(2810.5 3)"/>
    <g id="Airplane_Mode_toggle" data-name="Airplane Mode toggle" transform="translate(2789 173)">
      <path id="oval" class="cls-19" d="M23.5,0h20A15.45,15.45,0,0,1,59,15.5h0A15.45,15.45,0,0,1,43.5,31h-20A15.45,15.45,0,0,1,8,15.5H8A15.45,15.45,0,0,1,23.5,0Z" transform="translate(300.5 105.5)"/>
      <g class="cls-24" transform="matrix(1, 0, 0, 1, -2789, -173)">
        <path id="circle-2" data-name="circle" class="cls-20" d="M14,0A14,14,0,1,1,0,14,14,14,0,0,1,14,0Z" transform="translate(3098.2 280)"/>
      </g>
    </g>
    <g id="Ellipse_168" data-name="Ellipse 168" class="cls-21" transform="translate(2949 331)">
      <circle class="cls-22" cx="38.5" cy="38.5" r="38.5"/>
      <circle class="cls-23" cx="38.5" cy="38.5" r="37.5"/>
    </g>
    <g id="Ellipse_169" data-name="Ellipse 169" class="cls-21" transform="translate(3066 331)">
      <circle class="cls-22" cx="38.5" cy="38.5" r="38.5"/>
      <circle class="cls-23" cx="38.5" cy="38.5" r="37.5"/>
    </g>
    <g id="Ellipse_167" data-name="Ellipse 167" class="cls-21" transform="translate(2832 331)">
      <circle class="cls-22" cx="38.5" cy="38.5" r="38.5"/>
      <circle class="cls-23" cx="38.5" cy="38.5" r="37.5"/>
    </g>
  </g>
</svg>
